# Created by Open3D 
# object name: building-masses
# number of vertices: 72
# number of triangles: 108
v -7.69674 11.0523 -3.4377 0.73 0.79 0.75
vn -0.0514737 -0.230019 -0.971824
v 41.1716 10.7424 -2.39582 0.73 0.79 0.75
vn 0.0899258 -0.230915 -0.968809
v -7.78053 10.3619 0.287041 0.73 0.79 0.75
vn -0.0918206 -0.562446 0.82172
v 41.0878 10.0521 1.32893 0.73 0.79 0.75
vn 0.0495789 -0.563343 0.824734
v -7.67662 19.4767 -1.87582 0.73 0.79 0.75
vn -0.0495789 0.563343 -0.824734
v 41.1917 19.1668 -0.833928 0.73 0.79 0.75
vn 0.0918206 0.562446 -0.82172
v -7.76041 18.7863 1.84893 0.73 0.79 0.75
vn -0.0899258 0.230915 0.968809
v 41.1079 18.4765 2.89082 0.73 0.79 0.75
vn 0.0514737 0.230019 0.971824
v 19.4607 -14.1394 -1.25437 0.73 0.79 0.75
vn 0.0135942 -0.448188 -0.893836
v 51.225 -7.99465 -0.569562 0.73 0.79 0.75
vn 0.191606 -0.413752 -0.889998
v 19.3407 -13.8695 1.8913 0.73 0.79 0.75
vn -0.056971 -0.289514 0.955477
v 51.1049 -7.72474 2.57611 0.73 0.79 0.75
vn 0.121041 -0.255077 0.959315
v 17.9324 -6.15638 -1.99765 0.73 0.79 0.75
vn -0.121041 0.255077 -0.959315
v 49.6967 -0.0115928 -1.31284 0.73 0.79 0.75
vn 0.056971 0.289514 -0.955477
v 17.8124 -5.88647 1.14803 0.73 0.79 0.75
vn -0.191606 0.413752 0.889998
v 49.5766 0.258312 1.83284 0.73 0.79 0.75
vn -0.0135942 0.448188 0.893836
v -3.81692 -8.70185 -0.300769 0.73 0.79 0.75
vn -0.135939 0.873458 0.467538
v 14.2562 -8.27661 0.583509 0.73 0.79 0.75
vn 0.048541 0.877799 0.476564
v -3.71361 -9.73588 -1.91509 0.73 0.79 0.75
vn -0.0422093 -0.064636 -0.997016
v 14.3595 -9.31064 -1.03081 0.73 0.79 0.75
vn 0.142271 -0.0602954 -0.98799
v -3.83964 -11.619 1.56629 0.73 0.79 0.75
vn -0.142271 0.0602954 0.98799
v 14.2335 -11.1937 2.45057 0.73 0.79 0.75
vn 0.0422093 0.064636 0.997016
v -3.73632 -12.653 -0.0480297 0.73 0.79 0.75
vn -0.048541 -0.877799 -0.476564
v 14.3368 -12.2278 0.836248 0.73 0.79 0.75
vn 0.135939 -0.873458 -0.467538
v -11.2195 -17.6705 0.930169 0.73 0.79 0.75
vn -0.775701 -0.610339 0.160544
v -5.30066 -24.2551 1.14047 0.73 0.79 0.75
vn -0.694411 -0.700773 0.163432
v -10.8046 -17.295 1.00718 0.73 0.79 0.75
vn 0.625321 0.657322 0.420598
v -4.88575 -23.8797 1.21748 0.73 0.79 0.75
vn 0.706611 0.566887 0.423486
v -11.0055 -17.5359 -0.878974 0.73 0.79 0.75
vn -0.706611 -0.566887 -0.423486
v -5.08664 -24.1205 -0.668676 0.73 0.79 0.75
vn -0.625321 -0.657322 -0.420598
v -10.5906 -17.1604 -0.801959 0.73 0.79 0.75
vn 0.694411 0.700773 -0.163432
v -4.67173 -23.7451 -0.591661 0.73 0.79 0.75
vn 0.775701 0.610339 -0.160544
v -12.9224 -11.9293 -1.99855 0.73 0.79 0.75
vn -0.689973 0.257832 -0.676358
v -9.76777 -8.60805 -1.77354 0.73 0.79 0.75
vn -0.248273 0.722859 -0.644853
v -11.5691 -13.2349 -1.69973 0.73 0.79 0.75
vn 0.409321 -0.802763 -0.433622
v -8.41449 -9.9137 -1.47472 0.73 0.79 0.75
vn 0.851021 -0.337735 -0.402117
v -13.3191 -11.7324 0.658272 0.73 0.79 0.75
vn -0.851021 0.337735 0.402117
v -10.1645 -8.41121 0.883282 0.73 0.79 0.75
vn -0.409321 0.802763 0.433622
v -11.9659 -13.0381 0.957092 0.73 0.79 0.75
vn 0.248273 -0.722859 0.644853
v -8.81123 -9.71685 1.1821 0.73 0.79 0.75
vn 0.689973 -0.257832 0.676358
v -32.1703 -11.4405 -0.0744713 0.73 0.79 0.75
vn 0.339127 -0.938889 0.0589897
v -28.8019 -8.35192 0.687153 0.73 0.79 0.75
vn 0.876624 -0.446029 0.180524
v -33.6717 -10.0865 1.07455 0.73 0.79 0.75
vn -0.611857 -0.0812451 0.786785
v -30.3033 -6.9979 1.83617 0.73 0.79 0.75
vn -0.0743602 0.411615 0.908319
v -32.8767 -10.0337 -2.65533 0.73 0.79 0.75
vn 0.0743602 -0.411615 -0.908319
v -29.5084 -6.94511 -1.89371 0.73 0.79 0.75
vn 0.611857 0.0812451 -0.786785
v -34.3781 -8.67972 -1.50632 0.73 0.79 0.75
vn -0.876624 0.446029 -0.180524
v -31.0097 -5.59109 -0.744692 0.73 0.79 0.75
vn -0.339127 0.938889 -0.0589897
v 3.79833 16.5368 -1.14274 0.73 0.79 0.75
vn -0.907676 -0.0823206 -0.411519
v 4.58149 20.3706 -0.62753 0.73 0.79 0.75
vn -0.783141 0.527314 -0.329592
v 5.35309 16.2684 -1.50883 0.73 0.79 0.75
vn 0.560319 -0.335749 -0.757176
v 6.13625 20.1022 -0.993618 0.73 0.79 0.75
vn 0.684854 0.273886 -0.675249
v 4.2338 16.1624 0.981168 0.73 0.79 0.75
vn -0.684854 -0.273886 0.675249
v 5.01696 19.9962 1.49638 0.73 0.79 0.75
vn -0.560319 0.335749 0.757176
v 5.78856 15.894 0.61508 0.73 0.79 0.75
vn 0.783141 -0.527314 0.329592
v 6.57172 19.7278 1.13029 0.73 0.79 0.75
vn 0.907676 0.0823206 0.411519
v 44.3325 13.7432 0.91398 0.73 0.79 0.75
vn -0.194671 -0.945598 0.260669
v 47.3443 13.7751 0.754159 0.73 0.79 0.75
vn 0.241098 -0.940981 0.237545
v 44.3318 14.4758 1.04601 0.73 0.79 0.75
vn -0.196466 0.794702 0.574326
v 47.3436 14.5077 0.886189 0.73 0.79 0.75
vn 0.239303 0.799319 0.551202
v 44.2465 14.0253 -0.65176 0.73 0.79 0.75
vn -0.239303 -0.799319 -0.551202
v 47.2583 14.0572 -0.811582 0.73 0.79 0.75
vn 0.196466 -0.794702 -0.574326
v 44.2457 14.7579 -0.51973 0.73 0.79 0.75
vn -0.241098 0.940981 -0.237545
v 47.2575 14.7898 -0.679551 0.73 0.79 0.75
vn 0.194671 0.945598 -0.260669
v -2.88269 -13.1887 0.500586 0.73 0.79 0.75
vn 0.0157955 0.54098 0.840887
v 0.441142 -14.6045 0.516967 0.73 0.79 0.75
vn 0.372112 0.389211 0.842643
v -2.94804 -13.3506 -0.226079 0.73 0.79 0.75
vn -0.147917 0.135558 -0.979666
v 0.375796 -14.7663 -0.209698 0.73 0.79 0.75
vn 0.2084 -0.0162113 -0.977909
v -3.7935 -15.3207 1.05725 0.73 0.79 0.75
vn -0.2084 0.0162113 0.977909
v -0.469667 -16.7364 1.07363 0.73 0.79 0.75
vn 0.147917 -0.135558 0.979666
v -3.85885 -15.4825 0.330585 0.73 0.79 0.75
vn -0.372112 -0.389211 -0.842643
v -0.535012 -16.8982 0.346966 0.73 0.79 0.75
vn -0.0157955 -0.54098 -0.840887
f 5//5 8//8 6//6
f 5//5 7//7 8//8
f 1//1 3//3 5//5
f 3//3 7//7 5//5
f 1//1 2//2 3//3
f 2//2 4//4 3//3
f 2//2 6//6 8//8
f 2//2 8//8 4//4
f 3//3 4//4 8//8
f 3//3 8//8 7//7
f 1//1 5//5 2//2
f 2//2 5//5 6//6
f 13//13 16//16 14//14
f 13//13 15//15 16//16
f 9//9 11//11 13//13
f 11//11 15//15 13//13
f 9//9 10//10 11//11
f 10//10 12//12 11//11
f 10//10 14//14 16//16
f 10//10 16//16 12//12
f 11//11 12//12 16//16
f 11//11 16//16 15//15
f 9//9 13//13 10//10
f 10//10 13//13 14//14
f 21//21 24//24 22//22
f 21//21 23//23 24//24
f 17//17 19//19 21//21
f 19//19 23//23 21//21
f 17//17 18//18 19//19
f 18//18 20//20 19//19
f 18//18 22//22 24//24
f 18//18 24//24 20//20
f 19//19 20//20 24//24
f 19//19 24//24 23//23
f 17//17 21//21 18//18
f 18//18 21//21 22//22
f 29//29 32//32 30//30
f 29//29 31//31 32//32
f 25//25 27//27 29//29
f 27//27 31//31 29//29
f 25//25 26//26 27//27
f 26//26 28//28 27//27
f 26//26 30//30 32//32
f 26//26 32//32 28//28
f 27//27 28//28 32//32
f 27//27 32//32 31//31
f 25//25 29//29 26//26
f 26//26 29//29 30//30
f 37//37 40//40 38//38
f 37//37 39//39 40//40
f 33//33 35//35 37//37
f 35//35 39//39 37//37
f 33//33 34//34 35//35
f 34//34 36//36 35//35
f 34//34 38//38 40//40
f 34//34 40//40 36//36
f 35//35 36//36 40//40
f 35//35 40//40 39//39
f 33//33 37//37 34//34
f 34//34 37//37 38//38
f 45//45 48//48 46//46
f 45//45 47//47 48//48
f 41//41 43//43 45//45
f 43//43 47//47 45//45
f 41//41 42//42 43//43
f 42//42 44//44 43//43
f 42//42 46//46 48//48
f 42//42 48//48 44//44
f 43//43 44//44 48//48
f 43//43 48//48 47//47
f 41//41 45//45 42//42
f 42//42 45//45 46//46
f 53//53 56//56 54//54
f 53//53 55//55 56//56
f 49//49 51//51 53//53
f 51//51 55//55 53//53
f 49//49 50//50 51//51
f 50//50 52//52 51//51
f 50//50 54//54 56//56
f 50//50 56//56 52//52
f 51//51 52//52 56//56
f 51//51 56//56 55//55
f 49//49 53//53 50//50
f 50//50 53//53 54//54
f 61//61 64//64 62//62
f 61//61 63//63 64//64
f 57//57 59//59 61//61
f 59//59 63//63 61//61
f 57//57 58//58 59//59
f 58//58 60//60 59//59
f 58//58 62//62 64//64
f 58//58 64//64 60//60
f 59//59 60//60 64//64
f 59//59 64//64 63//63
f 57//57 61//61 58//58
f 58//58 61//61 62//62
f 69//69 72//72 70//70
f 69//69 71//71 72//72
f 65//65 67//67 69//69
f 67//67 71//71 69//69
f 65//65 66//66 67//67
f 66//66 68//68 67//67
f 66//66 70//70 72//72
f 66//66 72//72 68//68
f 67//67 68//68 72//72
f 67//67 72//72 71//71
f 65//65 69//69 66//66
f 66//66 69//69 70//70
